<?xml version="1.0" encoding="UTF-8" standalone="no"?><!DOCTYPE svg PUBLIC "-//W3C//DTD SVG 1.1//EN" "http://www.w3.org/Graphics/SVG/1.1/DTD/svg11.dtd"><svg width="100%" height="100%" viewBox="0 0 400 459" version="1.1" xmlns="http://www.w3.org/2000/svg" xmlns:xlink="http://www.w3.org/1999/xlink" xml:space="preserve" xmlns:serif="http://www.serif.com/" style="fill-rule:evenodd;clip-rule:evenodd;stroke-linejoin:round;stroke-miterlimit:1.41421;"><path d="M194.963,1.352c3.105,-1.803 6.939,-1.803 10.044,0c63.203,36.701 126.557,73.278 189.942,109.663c3.114,1.788 5.03,5.108 5.021,8.698c-0.182,73.086 -0.182,146.24 0,219.326c0.009,3.59 -1.907,6.91 -5.021,8.698c-63.385,36.385 -126.739,72.962 -189.942,109.663c-3.105,1.803 -6.939,1.803 -10.044,0c-63.202,-36.701 -126.556,-73.278 -189.941,-109.663c-3.114,-1.788 -5.031,-5.108 -5.022,-8.698c0.182,-73.086 0.182,-146.24 0,-219.326c-0.009,-3.59 1.908,-6.91 5.022,-8.698c63.385,-36.385 126.739,-72.962 189.941,-109.663Zm184.898,258.648c-0.033,-42.917 0.003,-85.842 0.109,-128.74c0.009,-3.591 -1.907,-6.91 -5.021,-8.698c-56.711,-32.555 -113.394,-65.28 -169.942,-98.116c-3.105,-1.803 -6.939,-1.803 -10.044,0c-56.548,32.836 -113.231,65.561 -169.941,98.116c-3.114,1.788 -5.031,5.107 -5.022,8.698c0.106,42.899 0.143,85.825 0.11,128.742l31.592,0l-0.001,-0.002l28.284,-0.101c3.557,0.048 7.015,-1.882 8.797,-5.262c2.559,-4.854 0.695,-10.874 -4.159,-13.433c-1.452,-0.766 -3.037,-1.145 -4.638,-1.124c0,0 -9.13,-0.08 -10,-0.08c-16.557,0 -30,-13.443 -30,-30c0,-16.526 13.392,-29.949 30,-30l66,0l-16,20l-50,0.056c-5.488,0 -9.944,4.456 -9.944,9.944c0,5.488 4.456,9.944 9.944,9.944l7.608,0.152c5.607,-0.119 11.25,0.66 16.383,3.366c14.646,7.722 20.269,25.882 12.547,40.529c-5.366,10.178 -15.772,15.998 -26.538,16.011l0,0l-59.896,0c-0.02,15.832 -0.05,31.663 -0.089,47.49c-0.009,3.59 1.908,6.91 5.022,8.698c56.71,32.555 113.393,65.28 169.941,98.116c3.105,1.803 6.939,1.803 10.044,0c56.548,-32.836 113.231,-65.561 169.942,-98.116c3.114,-1.788 5.03,-5.108 5.021,-8.698c-0.039,-15.828 -0.069,-31.659 -0.089,-47.492l-39.896,0l-0.115,0c-10.578,0 -20.723,-4.202 -28.203,-11.682c-7.48,-7.48 -11.682,-17.624 -11.682,-28.203l0,-60.115l-20,-20l20,0l0,-57.331l20,11.547l0,45.784l40,0l0,20l-40,0l0,60c0,5.304 2.107,10.391 5.858,14.142c3.751,3.751 8.838,5.858 14.142,5.858l39.876,0Zm-105.876,20l-20,0l0,-203.889l20,11.547l0,192.342Zm-40,0l-20,0l0,-10.008c-8.359,6.283 -18.748,10.008 -30,10.008c-27.596,0 -50,-22.404 -50,-50c0,-27.596 22.404,-50 50,-50c27.596,0 50,22.404 50,50l0,50Zm-19.921,-50c0,-16.601 -13.478,-30.079 -30.079,-30.079c-16.601,0 -30.079,13.478 -30.079,30.079c0,16.601 13.478,30.079 30.079,30.079c15.862,0 28.873,-12.305 30,-27.882l0,-2.197l0.079,0Z" style="fill:url(#_Linear1);"/><defs><linearGradient id="_Linear1" x1="0" y1="0" x2="1" y2="0" gradientUnits="userSpaceOnUse" gradientTransform="matrix(-8.42714e-14,458.752,-458.752,-8.42714e-14,199.97,5.65659e-14)"><stop offset="0" style="stop-color:#ff0031;stop-opacity:1"/><stop offset="0.63" style="stop-color:#810756;stop-opacity:1"/><stop offset="1" style="stop-color:#392d45;stop-opacity:1"/></linearGradient></defs></svg>